# xmcd
#
# Track frame offsets:
#	150
#	842
#	26210
#	45384
#	69007
#	87670
#	105751
#	126402
#	149513
#	168332
#	187465
#	203270
#	222527
#	241166
#
# Disc length: 3425 seconds
#
# Revision: 0
# Processed by: cddbd v1.4PL0 Copyright (c) Steve Scherf et al.
# Submitted via: dBpowerAMP V4.0
#
DISCID=bb0d5f0e
DTITLE=劉德華 - 男人的愛
DYEAR=2000
DGENRE=
TTITLE0=DATA
TTITLE1=DATA
TTITLE2=DATA
TTITLE3=男人哭吧不是罪
TTITLE4=我不夠愛你
TTITLE5=享用我的姓
TTITLE6=明天同一時間
TTITLE7=總會有一天
TTITLE8=沒有你的城市
TTITLE9=我學會
TTITLE10=不再愛了
TTITLE11=人生長路
TTITLE12=我不夠愛你 (獨唱版)
TTITLE13=愛情新活力
EXTD=
EXTT0=
EXTT1=
EXTT2=
EXTT3=
EXTT4=
EXTT5=
EXTT6=
EXTT7=
EXTT8=
EXTT9=
EXTT10=
EXTT11=
EXTT12=
EXTT13=
PLAYORDER=
